<?xml version="1.0" encoding="iso-8859-1"?>
<!-- Generator: Adobe Illustrator 18.0.0, SVG Export Plug-In . SVG Version: 6.00 Build 0)  -->
<!DOCTYPE svg PUBLIC "-//W3C//DTD SVG 1.1//EN" "http://www.w3.org/Graphics/SVG/1.1/DTD/svg11.dtd">
<svg version="1.1" id="Capa_1" xmlns="http://www.w3.org/2000/svg" xmlns:xlink="http://www.w3.org/1999/xlink" x="0px" y="0px"
	 viewBox="0 0 353.234 353.234" style="enable-background:new 0 0 353.234 353.234;" xml:space="preserve">
<g>
	<rect x="278.526" y="184.691" style="fill:#84BD93;" width="10" height="5"/>
	<rect x="278.526" y="226.691" style="fill:#84BD93;" width="10" height="23"/>
	<g>
		<path style="fill:#84BD93;" d="M324.265,159.665c-1.385-11.415-3.834-19.743-7.588-26.079c-4.535-2.475-10.009-5.895-16.574-5.895
			H73.179c-20.829,0-30.735,14.162-34.197,42.695L27.004,280.691H337.34L324.265,159.665z M67.683,140.921
			c0-4.152,3.366-6.23,7.517-6.23h202.835c4.152,0,7.517,2.078,7.517,6.23c0,4.152-3.365,7.77-7.517,7.77H75.199
			C71.049,148.691,67.683,145.073,67.683,140.921z M298.526,257.224c0,4.151,1.844,5.466-2.308,5.466H267.16
			c-4.152,0-6.634-0.93-6.634-5.082v-86.12c0-4.151,2.799-7.798,6.95-7.798h29.058c4.152,0,1.991,3.262,1.991,7.414V257.224z"/>
	</g>
	<rect x="52.526" y="293.691" style="fill:#84BD93;" width="29" height="10"/>
	<rect x="280.526" y="293.691" style="fill:#84BD93;" width="31" height="10"/>
	<rect x="278.526" y="202.691" style="fill:#CE593F;" width="10" height="11"/>
	<g>
		<path style="fill:#EF8829;" d="M221.94,50.754c0.577,0.34,1.137,0.715,1.666,1.14C223.076,51.47,222.517,51.094,221.94,50.754z"/>
		<path style="fill:#EF8829;" d="M219.901,49.77c0.591,0.222,1.161,0.497,1.715,0.804C221.061,50.267,220.492,49.992,219.901,49.77z
			"/>
		<path style="fill:#EF8829;" d="M217.944,49.22c0.637,0.128,1.264,0.289,1.87,0.512C219.208,49.51,218.581,49.348,217.944,49.22z"
			/>
		<path style="fill:#EF8829;" d="M215.519,48.963c0.672,0,1.327,0.073,1.974,0.177C216.846,49.036,216.191,48.963,215.519,48.963z"
			/>
		<path style="fill:#EF8829;" d="M225.151,53.341c-0.476-0.508-0.977-0.985-1.509-1.415
			C224.174,52.356,224.675,52.833,225.151,53.341z"/>
		<path style="fill:#EF8829;" d="M227.858,57.246c0.348,0.696,0.654,1.423,0.912,2.178
			C228.511,58.669,228.206,57.943,227.858,57.246z"/>
		<path style="fill:#EF8829;" d="M225.298,53.496c0.985,1.082,1.839,2.321,2.527,3.688
			C227.135,55.817,226.284,54.577,225.298,53.496z"/>
		<path style="fill:#EF8829;" d="M228.772,59.782c-1.04-0.28-2.118-0.091-3.229-0.091H110.546c-7.864,0-14.261,7.067-14.261,16.185
			c0,2.143,0.365,3.48,1.008,5.361c1.04,0.281-0.119,2.047,0.993,2.047l1.202-0.183c4.152,0,7.038,2.3,7.038,6.452v15.137h102
			V89.553c0-4.152,3.104-7.517,7.255-7.517c7.864,0,14.13-7.243,14.13-16.36C229.911,63.532,229.415,61.664,228.772,59.782z"/>
		<path style="fill:#EF8829;" d="M91.093,77.871c0.561,0.576,1.159,1.101,1.793,1.57C92.252,78.974,91.654,78.446,91.093,77.871z"/>
		<path style="fill:#EF8829;" d="M97.291,81.592c-1.563-0.422-3.027-1.146-4.347-2.109C94.264,80.448,95.727,81.169,97.291,81.592z"
			/>
		<path style="fill:#EF8829;" d="M86.458,68.116c-0.118-0.854-0.196-1.723-0.196-2.615C86.262,66.393,86.34,67.262,86.458,68.116z"
			/>
		<path style="fill:#EF8829;" d="M90.961,77.733c-0.553-0.581-1.072-1.206-1.541-1.879C89.889,76.528,90.408,77.151,90.961,77.733z"
			/>
		<path style="fill:#EF8829;" d="M87.054,70.887c-0.229-0.766-0.413-1.556-0.543-2.369C86.641,69.331,86.826,70.12,87.054,70.887z"
			/>
		<path style="fill:#EF8829;" d="M88.07,73.536c-0.346-0.717-0.637-1.473-0.889-2.25C87.433,72.064,87.724,72.819,88.07,73.536z"/>
		<path style="fill:#EF8829;" d="M89.392,75.811c-0.462-0.668-0.876-1.382-1.246-2.129C88.515,74.43,88.931,75.142,89.392,75.811z"
			/>
	</g>
	<g>
		<path style="fill:#EF8829;" d="M241.868,51.759c-0.099-0.219-0.193-0.441-0.296-0.658C241.675,51.317,241.77,51.54,241.868,51.759
			z"/>
		<path style="fill:#EF8829;" d="M242.822,54.104c-0.086-0.238-0.175-0.474-0.266-0.71C242.647,53.63,242.736,53.866,242.822,54.104
			z"/>
		<path style="fill:#EF8829;" d="M264.817,59.691h-20.634c0.412,0,0.877,3.929,0.877,6.162c0,14.608-8.533,26.572-21.533,30.159
			v8.679h34V89.553c0-4.152,3.252-7.517,7.404-7.517c6.356,0,11.694-4.498,13.529-11.173
			C276.623,64.189,271.173,59.691,264.817,59.691z"/>
		<path style="fill:#EF8829;" d="M278.403,70.51c0.198-0.719,0.342-1.463,0.454-2.221C278.745,69.046,278.6,69.791,278.403,70.51z"
			/>
		<path style="fill:#EF8829;" d="M278.919,67.819c0.093-0.76,0.157-1.53,0.157-2.318C279.076,66.289,279.012,67.06,278.919,67.819z"
			/>
		<path style="fill:#EF8829;" d="M243.581,56.463c-0.048-0.171-0.104-0.338-0.155-0.509
			C243.477,56.125,243.533,56.292,243.581,56.463z"/>
	</g>
	<path style="fill:#3F2D20;" d="M295.112,164.155H266.5c-4.152,0-7.517,3.365-7.517,7.517v84.985c0,4.152,3.365,7.517,7.517,7.517
		h28.612c4.152,0,7.517-3.365,7.517-7.517v-84.985C302.63,167.52,299.264,164.155,295.112,164.155z M274.018,179.189h13.578v10.034
		h-13.578V179.189z M287.595,212.386h-13.578v-8.128h13.578V212.386z M287.595,249.14h-13.578v-21.72h13.578V249.14z"/>
	<path style="fill:#3F2D20;" d="M285.551,141.177c0-4.152-3.365-7.517-7.517-7.517H75.199c-4.151,0-7.517,3.365-7.517,7.517
		c0,4.152,3.366,7.517,7.517,7.517h202.835C282.186,148.694,285.551,145.329,285.551,141.177z"/>
	<path style="fill:#3F2D20;" d="M353.19,286.332l-13.989-128.917c-1.603-13.208-6.48-53.397-49.122-53.397h-17.746v-8.007
		c12.521-3.586,21.776-15.903,21.776-30.511c0-17.409-13.141-31.572-29.293-31.572H100.523c-16.154,0-29.295,14.163-29.295,31.572
		c0,14.613,9.263,26.934,21.792,30.515v8.003H63.156c-42.644,0-47.519,40.189-49.131,53.491L0.044,286.332
		c-0.231,2.122,0.452,4.242,1.877,5.832c1.426,1.589,3.461,2.496,5.595,2.496h20.087v17.129c0,4.152,3.365,7.517,7.517,7.517h53.965
		c4.151,0,7.517-3.365,7.517-7.517v-17.129h160.03v17.129c0,4.152,3.366,7.517,7.517,7.517h53.967c4.151,0,7.517-3.365,7.517-7.517
		v-17.129h20.085c2.134,0,4.169-0.906,5.595-2.496C352.738,290.574,353.421,288.454,353.19,286.332z M310.599,304.271h-38.933
		v-9.612h38.933V304.271z M15.894,279.625l13.066-120.399c3.462-28.533,13.368-40.173,34.197-40.173h226.923
		c20.827,0,30.734,11.64,34.185,40.08l13.076,120.493H15.894z M42.637,304.271v-9.612h38.93v9.612H42.637z M100.523,48.963h114.996
		c7.864,0,14.261,7.419,14.261,16.538c0,9.117-6.397,16.536-14.261,16.536c-4.151,0-7.517,3.365-7.517,7.517v14.465h-99.948V89.553
		c0-4.152-3.365-7.517-7.517-7.517h-0.014c-7.864,0-14.261-7.419-14.261-16.536C86.262,56.382,92.659,48.963,100.523,48.963z
		 M240.461,48.963h24.356c7.863,0,14.259,7.419,14.259,16.538c0,9.117-6.396,16.536-14.259,16.536c-4.152,0-7.517,3.365-7.517,7.517
		v14.465h-34.263v-8.007c12.523-3.586,21.778-15.903,21.778-30.511C244.814,59.44,243.219,53.777,240.461,48.963z"/>
</g>
<g>
</g>
<g>
</g>
<g>
</g>
<g>
</g>
<g>
</g>
<g>
</g>
<g>
</g>
<g>
</g>
<g>
</g>
<g>
</g>
<g>
</g>
<g>
</g>
<g>
</g>
<g>
</g>
<g>
</g>
</svg>
